<?xml version="1.0" standalone="no"?>
<!DOCTYPE svg PUBLIC "-//W3C//DTD SVG 20010904//EN"
 "http://www.w3.org/TR/2001/REC-SVG-20010904/DTD/svg10.dtd">
<svg version="1.0" xmlns="http://www.w3.org/2000/svg"
 width="512.000000pt" height="512.000000pt" viewBox="0 0 512.000000 512.000000"
 preserveAspectRatio="xMidYMid meet">

<g transform="translate(0.000000,512.000000) scale(0.100000,-0.100000)"
fill="#000000" stroke="none">
<path d="M2640 3824 c0 -988 3 -1234 13 -1227 6 6 170 121 364 256 l352 247
288 -201 c158 -111 323 -226 366 -256 l77 -54 0 1235 0 1236 -730 0 -730 0 0
-1236z"/>
<path d="M540 2370 l0 -2310 2020 0 2020 0 0 2310 0 2310 -160 0 -160 0 -2
-1198 -3 -1197 -440 307 c-242 169 -445 306 -451 304 -6 -3 -208 -142 -448
-310 l-436 -305 0 1200 0 1199 -970 0 -970 0 0 -2310z"/>
</g>
</svg>
