<?xml version="1.0" standalone="no"?>
<!DOCTYPE svg PUBLIC "-//W3C//DTD SVG 20010904//EN"
 "http://www.w3.org/TR/2001/REC-SVG-20010904/DTD/svg10.dtd">
<svg version="1.0" xmlns="http://www.w3.org/2000/svg"
 width="24.000000pt" height="24.000000pt" viewBox="0 0 24.000000 24.000000"
 preserveAspectRatio="xMidYMid meet">

<g transform="translate(0.000000,24.000000) scale(0.100000,-0.100000)"
fill="#000000" stroke="none">
<path d="M90 195 c-15 -18 -10 -45 13 -59 34 -22 73 27 47 59 -16 19 -44 19
-60 0z"/>
<path d="M40 135 c-7 -9 -10 -18 -7 -22 8 -7 37 15 37 28 0 14 -16 11 -30 -6z"/>
<path d="M58 84 c-16 -8 -28 -23 -28 -34 0 -17 7 -20 53 -20 44 0 58 4 77 26
21 21 22 27 10 34 -22 14 -81 11 -112 -6z"/>
<path d="M219 83 c-1 -4 -1 -12 0 -16 1 -5 -3 -5 -9 -2 -13 8 -60 -32 -60 -52
0 -17 11 -16 35 5 39 35 57 60 46 67 -6 3 -12 3 -12 -2z"/>
</g>
</svg>
