<?xml version="1.0" standalone="no"?>
<!DOCTYPE svg PUBLIC "-//W3C//DTD SVG 20010904//EN"
 "http://www.w3.org/TR/2001/REC-SVG-20010904/DTD/svg10.dtd">
<svg version="1.0" xmlns="http://www.w3.org/2000/svg"
 width="51.000000pt" height="51.000000pt" viewBox="0 0 51.000000 51.000000"
 preserveAspectRatio="xMidYMid meet">

<g transform="translate(0.000000,51.000000) scale(0.100000,-0.100000)"
fill="#000000" stroke="none">
<path d="M296 468 c-11 -15 -12 -26 -5 -40 13 -24 55 -23 69 1 13 25 13 27 -6
45 -21 22 -40 20 -58 -6z"/>
<path d="M76 448 c-9 -5 -16 -20 -16 -33 0 -42 60 -57 74 -18 15 38 -22 71
-58 51z"/>
<path d="M176 384 c-4 -15 -2 -32 5 -40 7 -8 8 -18 4 -22 -4 -4 -14 3 -22 16
-12 18 -25 22 -64 22 -30 0 -53 -6 -63 -15 -20 -20 -39 -84 -34 -113 4 -26 22
-34 25 -12 13 97 18 85 23 -50 4 -120 8 -145 20 -145 12 0 16 19 21 90 l5 90
2 -80 c2 -87 11 -111 36 -102 14 5 16 27 16 140 l0 134 23 -4 c28 -6 41 9 54
64 9 34 8 43 -4 47 -28 11 -41 6 -47 -20z"/>
<path d="M274 392 c-19 -12 -34 -49 -34 -81 0 -29 -2 -31 -40 -31 -22 0 -40
-4 -40 -10 0 -6 65 -10 176 -10 157 0 175 2 170 16 -3 9 -6 18 -6 20 0 2 -13
4 -30 4 -16 0 -30 -4 -30 -10 0 -22 -25 -8 -26 15 -3 47 -14 74 -35 86 -17 8
-23 7 -35 -8 -13 -17 -13 -17 -14 2 -1 19 -2 19 -9 1 -7 -18 -8 -18 -14 -3 -7
18 -16 21 -33 9z m83 -48 c-3 -3 -12 -4 -19 -1 -8 3 -5 6 6 6 11 1 17 -2 13
-5z m-81 -62 c-11 -10 -14 3 -8 33 l7 30 3 -28 c2 -16 1 -31 -2 -35z m114 18
c0 -11 -4 -20 -9 -20 -5 0 -7 9 -4 20 3 11 7 20 9 20 2 0 4 -9 4 -20z"/>
<path d="M436 334 c-9 -24 -9 -24 27 -24 26 0 33 4 34 20 1 16 -4 20 -27 20
-16 0 -30 -7 -34 -16z"/>
</g>
</svg>
